<svg width="139" height="32" viewBox="0 0 139 32" fill="none" xmlns="http://www.w3.org/2000/svg">
<path d="M30.185 25.3106C28.8674 25.3106 27.7871 25.2433 26.9438 25.0952C26.1006 24.9471 25.455 24.651 25.0071 24.2067C24.5591 23.7625 24.2561 23.1029 24.0848 22.2279C23.9267 21.3529 23.8345 20.1818 23.8345 18.7279L23.8081 8.24146H26.8384V11.903C26.9307 11.903 27.1283 11.903 27.4577 11.8895C27.7871 11.876 28.1823 11.8626 28.6303 11.8626C29.0782 11.8491 29.5262 11.8357 29.961 11.8087C30.3958 11.7818 30.7779 11.7818 31.1073 11.7818C32.6883 11.7818 33.9136 11.9972 34.7964 12.4145C35.6791 12.8453 36.2983 13.5453 36.6541 14.528C37.0098 15.5106 37.2074 16.8433 37.2338 18.526C37.2338 20.1414 37.0757 21.4067 36.7595 22.3221C36.4433 23.2375 35.9821 23.9106 35.3892 24.3413C34.7964 24.7721 34.0585 25.0413 33.189 25.149C32.293 25.2567 31.3049 25.3106 30.185 25.3106ZM30.2113 23.5606C31.239 23.5606 32.0427 23.4394 32.5961 23.2106C33.1494 22.9817 33.5447 22.4837 33.7818 21.7433C34.0058 21.0029 34.1244 19.8856 34.1244 18.3779C34.0981 17.1395 33.9663 16.1837 33.7291 15.4837C33.492 14.7837 33.0967 14.2856 32.5565 13.9895C32.0164 13.6933 31.3049 13.5318 30.3958 13.5318C30.1586 13.5318 29.8424 13.5318 29.4735 13.5453C29.1046 13.5587 28.7225 13.5722 28.3536 13.5722C27.9847 13.5856 27.6553 13.5991 27.3786 13.5991C27.1019 13.6126 26.9175 13.6126 26.8384 13.6126V19.0645C26.8384 20.0471 26.878 20.8414 26.957 21.4202C27.0361 21.9991 27.181 22.4433 27.405 22.7529C27.629 23.049 27.9583 23.2644 28.4063 23.3721C28.8674 23.5067 29.4735 23.5606 30.2113 23.5606Z" fill="#3257A4"/>
<path d="M46.4698 25.4183C45.3762 25.4183 44.4013 25.3375 43.558 25.1625C42.7148 25.001 41.9902 24.6779 41.3841 24.2068C40.778 23.7356 40.3301 23.0356 40.0139 22.1203C39.7108 21.2049 39.5527 20.0068 39.5527 18.526C39.5527 17.0453 39.7108 15.8472 40.0139 14.9318C40.3169 14.0165 40.778 13.3165 41.3841 12.8453C41.9902 12.3742 42.7148 12.0511 43.558 11.8896C44.4013 11.728 45.3762 11.6338 46.4698 11.6338C47.5238 11.6338 48.4724 11.7146 49.3157 11.8896C50.1589 12.0511 50.8835 12.3742 51.4764 12.8453C52.0693 13.3165 52.5305 14.0165 52.8467 14.9318C53.1629 15.8472 53.321 17.0453 53.321 18.526C53.321 20.0337 53.1629 21.2453 52.8467 22.1606C52.5305 23.076 52.0693 23.776 51.4764 24.2337C50.8835 24.6914 50.1589 25.001 49.3157 25.176C48.4724 25.3375 47.5238 25.4183 46.4698 25.4183ZM46.4698 23.7356C47.2603 23.7356 47.9323 23.6145 48.4988 23.3722C49.0522 23.1299 49.4869 22.6318 49.7636 21.8914C50.0535 21.151 50.1852 20.0337 50.1852 18.526C50.1852 17.0184 50.0403 15.9011 49.7636 15.1607C49.4738 14.4203 49.0522 13.9222 48.4988 13.6799C47.9454 13.4376 47.2603 13.3165 46.4698 13.3165C45.6793 13.3165 44.9942 13.4376 44.4276 13.6799C43.8611 13.9222 43.4263 14.4203 43.1233 15.1607C42.8334 15.9011 42.6753 17.0184 42.6753 18.526C42.6753 20.0337 42.8202 21.151 43.1233 21.8914C43.4131 22.6318 43.8479 23.1299 44.4276 23.3722C45.0073 23.6145 45.6793 23.7356 46.4698 23.7356Z" fill="#3257A4"/>
<path d="M56.1538 25.2164L56.1143 9.4127C56.1143 8.94155 56.1801 8.61848 56.3251 8.45694C56.47 8.2954 56.7862 8.20117 57.2605 8.20117H59.2368V18.4992L64.8363 12.5088C65.1262 12.2396 65.4161 12.0377 65.7059 11.9165C65.9958 11.7954 66.4306 11.7281 66.9707 11.7281C67.3924 11.7281 67.7744 11.7281 68.117 11.7415C68.4727 11.755 68.7889 11.7685 69.0656 11.7954C68.9998 11.8627 68.868 11.9704 68.6572 12.1319C68.4464 12.2935 68.2224 12.4685 67.9852 12.6569C67.7481 12.8454 67.5241 13.0338 67.3265 13.2088L63.084 17.3415L68.8153 23.8299C69.0525 24.0991 69.3028 24.3414 69.5399 24.5703C69.7771 24.7991 70.0143 25.0011 70.2251 25.203C69.6717 25.2299 69.1183 25.2299 68.565 25.2299C68.0116 25.2299 67.5109 25.2299 67.063 25.2299C66.5623 25.2299 66.1802 25.1626 65.9299 25.0414C65.6796 24.9203 65.4029 24.7049 65.1262 24.4222L60.9496 19.6165L59.2368 21.0972V25.203H56.1538V25.2164Z" fill="#3257A4"/>
<path d="M76.3645 25.3511C75.9428 25.3511 75.4554 25.3377 74.8888 25.3242C74.3223 25.2973 73.7426 25.2569 73.1628 25.1761C72.5831 25.0954 72.0561 24.9742 71.595 24.8261C71.3051 24.7588 71.0811 24.6646 70.923 24.5569C70.7649 24.4492 70.6332 24.2473 70.5673 23.9646C70.4883 23.6819 70.4487 23.2512 70.4487 22.6723C71.0021 22.9146 71.6082 23.1165 72.2933 23.2646C72.9784 23.4127 73.6503 23.5069 74.3223 23.5473C74.9942 23.5877 75.5739 23.6146 76.0482 23.6146C76.6411 23.6146 77.234 23.5877 77.8137 23.5473C78.3935 23.5069 78.9336 23.3992 79.4211 23.2512C79.9086 23.0896 80.3039 22.8473 80.6069 22.5108C80.8968 22.1742 81.0549 21.7166 81.0549 21.1377C81.0549 20.3569 80.8572 19.8454 80.462 19.63C80.0667 19.4012 79.5134 19.2935 78.8151 19.2935H75.3631C74.5067 19.2935 73.7162 19.2396 72.9784 19.132C72.2406 19.0243 71.6477 18.7281 71.1997 18.257C70.7518 17.7858 70.5278 16.9916 70.5278 15.8743C70.5278 14.6358 70.8176 13.7205 71.4105 13.1147C72.0034 12.5089 72.8466 12.1185 73.927 11.9435C75.0074 11.7685 76.2854 11.6743 77.761 11.6743C78.3144 11.6743 78.9468 11.6878 79.6846 11.7012C80.4225 11.7282 81.1076 11.7955 81.74 11.9032C82.267 11.9435 82.6886 12.0378 83.0048 12.1589C83.321 12.2801 83.5582 12.4551 83.7163 12.657C83.8744 12.8724 83.9403 13.1955 83.9403 13.6128V14.3801C83.7426 14.1378 83.4001 13.9493 82.9258 13.8281C82.4383 13.707 81.8717 13.6128 81.2262 13.5455C80.5806 13.4781 79.9086 13.4378 79.2235 13.4243C78.5384 13.4108 77.8928 13.4108 77.2999 13.4108C76.6675 13.4108 76.0482 13.4512 75.4685 13.532C74.8888 13.6128 74.4145 13.8012 74.0719 14.1243C73.7162 14.4339 73.5449 14.9589 73.5449 15.6724C73.5449 16.2377 73.6503 16.6416 73.8743 16.8839C74.0983 17.1262 74.4013 17.2877 74.7966 17.355C75.1919 17.4224 75.6398 17.4627 76.1405 17.4627H79.7637C80.6464 17.4627 81.4106 17.5435 82.0694 17.6916C82.7281 17.8531 83.242 18.1897 83.6109 18.7012C83.9798 19.2127 84.1643 20.0204 84.1643 21.1243C84.1643 22.3762 83.8217 23.305 83.1498 23.9108C82.4646 24.5165 81.5424 24.9204 80.3829 25.1088C79.2103 25.2569 77.8796 25.3511 76.3645 25.3511Z" fill="#3257A4"/>
<path d="M87.6823 25.2164C87.1817 25.2164 86.8391 25.1356 86.681 24.9875C86.5229 24.826 86.4307 24.4894 86.4307 23.9779V12.7376C86.6678 12.6703 86.984 12.5761 87.3661 12.4684C87.7482 12.3607 88.1962 12.2395 88.71 12.1184C89.2238 11.9972 89.7904 11.903 90.4228 11.8357C91.042 11.7684 91.7008 11.7415 92.3859 11.7415C93.1765 11.7415 93.8616 11.8088 94.4281 11.9299C94.9947 12.0511 95.4953 12.2799 95.9038 12.603C96.3254 12.9261 96.6547 13.3972 96.9183 14.003L96.3912 13.9761C96.5625 13.5453 96.826 13.1818 97.1818 12.8857C97.5375 12.5895 97.9328 12.3472 98.3807 12.1857C98.8287 12.0241 99.303 11.903 99.7773 11.8357C100.265 11.7684 100.713 11.7415 101.121 11.7415C102.439 11.7415 103.48 11.8761 104.231 12.1318C104.982 12.3876 105.522 12.8184 105.838 13.4241C106.154 14.0299 106.312 14.8645 106.312 15.9145V24.126C106.312 24.5971 106.233 24.9067 106.062 25.0548C105.904 25.2029 105.588 25.2702 105.127 25.2702H103.295C103.295 23.6952 103.295 22.1337 103.295 20.5587C103.295 18.9837 103.295 17.4087 103.295 15.8203C103.269 14.851 103.058 14.2049 102.636 13.8684C102.215 13.5318 101.582 13.3703 100.726 13.3703C100.331 13.3703 99.9222 13.4241 99.4874 13.5318C99.0658 13.6395 98.6969 13.8011 98.4071 14.003C98.1172 14.2049 97.9591 14.4337 97.9591 14.703V25.2567H94.8629V15.0934C94.8629 14.5549 94.6257 14.1376 94.1383 13.828C93.6508 13.5318 93.0315 13.3703 92.2673 13.3703C91.8062 13.3703 91.3846 13.4107 90.9893 13.4914C90.5941 13.5722 90.2647 13.6799 90.0012 13.8145C89.7377 13.9491 89.5796 14.1241 89.54 14.353V25.2433H87.6823V25.2164Z" fill="#3257A4"/>
<path d="M115.996 25.4182C114.652 25.4182 113.532 25.324 112.623 25.149C111.714 24.974 110.989 24.6375 110.449 24.1394C109.909 23.6413 109.527 22.9683 109.316 22.0933C109.092 21.2183 108.987 20.0875 108.987 18.701C108.987 17.0452 109.198 15.6991 109.606 14.6625C110.028 13.626 110.765 12.8722 111.833 12.3876C112.9 11.903 114.389 11.6606 116.299 11.6606C117.788 11.6606 118.987 11.8491 119.87 12.2126C120.752 12.576 121.398 13.1549 121.793 13.9491C122.189 14.7299 122.386 15.726 122.386 16.9375V19.0914H113.137C113.137 18.7279 113.216 18.4452 113.361 18.2164C113.519 17.9875 113.796 17.8798 114.217 17.8798H119.619L119.593 17.0048C119.567 15.7529 119.316 14.8241 118.816 14.2452C118.328 13.6664 117.432 13.3702 116.167 13.3702C115.113 13.3702 114.296 13.5318 113.704 13.8683C113.111 14.2049 112.689 14.7433 112.452 15.4972C112.215 16.251 112.096 17.2875 112.096 18.6068C112.096 19.9798 112.228 21.0164 112.505 21.7163C112.781 22.4163 113.242 22.901 113.888 23.1433C114.534 23.3856 115.443 23.5067 116.602 23.5067C117.024 23.5067 117.511 23.4933 118.065 23.4798C118.618 23.4529 119.198 23.426 119.777 23.3856C120.357 23.3452 120.884 23.2779 121.345 23.224C121.806 23.1567 122.109 23.0894 122.268 23.0221V23.4933C122.268 23.7356 122.215 23.9913 122.109 24.2336C122.004 24.4759 121.767 24.6779 121.424 24.8394C120.963 25.0682 120.291 25.2163 119.395 25.2971C118.486 25.3779 117.353 25.4182 115.996 25.4182Z" fill="#3257A4"/>
<path d="M124.455 18.4587C124.455 16.6414 124.692 15.2414 125.179 14.2722C125.667 13.303 126.365 12.6299 127.287 12.253C128.21 11.8895 129.316 11.7011 130.607 11.7011C131.003 11.7011 131.464 11.7145 131.978 11.7549C132.492 11.7818 133.005 11.8357 133.506 11.903C134.007 11.9703 134.455 12.0376 134.85 12.1184C135.245 12.1992 135.522 12.2799 135.667 12.3742L134.85 12.778V8.22803H137.88L137.854 18.4587C137.854 19.9799 137.749 21.2049 137.525 22.1068C137.301 23.0087 136.945 23.6952 136.444 24.1395C135.943 24.5837 135.232 24.8933 134.336 25.0414C133.44 25.2029 132.32 25.2702 130.976 25.2702C129.725 25.2702 128.684 25.1894 127.827 25.0145C126.984 24.8529 126.312 24.5298 125.825 24.0587C125.337 23.5875 124.982 22.901 124.771 22.0126C124.56 21.1241 124.455 19.9395 124.455 18.4587ZM130.911 23.5606C131.767 23.5606 132.452 23.4933 132.979 23.3722C133.506 23.251 133.901 23.0222 134.178 22.6856C134.455 22.3491 134.639 21.8779 134.718 21.2587C134.81 20.6395 134.85 19.8453 134.85 18.8491L134.824 13.7068C134.6 13.6799 134.31 13.6665 133.941 13.6395C133.572 13.6126 133.177 13.5991 132.755 13.5857C132.333 13.5722 131.951 13.5722 131.609 13.5722C130.621 13.5722 129.83 13.7068 129.237 13.9626C128.644 14.2184 128.223 14.703 127.959 15.4299C127.696 16.1434 127.564 17.1799 127.564 18.526C127.564 19.9664 127.669 21.0433 127.88 21.7568C128.091 22.4702 128.434 22.9548 128.934 23.1972C129.409 23.4395 130.067 23.5606 130.911 23.5606Z" fill="#3257A4"/>
<path d="M4.68518 7.80803C1.0198 8.4636 -1.03556 12.5074 0.532308 15.9778C0.851152 16.6791 1.1779 17.1153 2.13311 18.1034L3.02245 19.0201L3.14235 18.7576C3.24511 18.5382 3.40322 18.3524 4.15948 17.5824C5.11074 16.6186 5.23855 16.5176 5.66147 16.4503C6.15819 16.3655 6.57189 16.527 7.00141 16.9699C7.34528 17.3253 7.48494 17.5918 7.50998 17.9458L7.5271 18.2043L7.80906 18.2514C8.20564 18.3147 8.42171 18.4372 8.75241 18.7791C9.08311 19.121 9.20301 19.3418 9.26493 19.7133L9.30578 19.9799L9.5706 20.027C9.71948 20.0526 9.91843 20.1158 10.0133 20.167C10.2122 20.272 10.6668 20.7081 10.8078 20.9316C10.9237 21.1133 11.0357 21.4808 11.0357 21.676C11.0357 21.8066 11.0436 21.816 11.1727 21.816C11.3585 21.816 11.7314 21.9345 11.8842 22.0395C11.954 22.0866 12.12 22.2333 12.261 22.3693C12.5627 22.6654 12.7696 22.7368 13.0555 22.6574C13.2505 22.6022 13.572 22.3154 13.7208 22.0651C13.8289 21.8874 13.8368 21.571 13.7419 21.3799C13.705 21.3031 12.7445 20.2935 11.6115 19.1318C10.3783 17.8678 9.54689 16.9807 9.54293 16.9335C9.52581 16.663 9.66283 16.4893 9.89076 16.4893C10.0067 16.4893 10.2346 16.7047 12.1332 18.6445C13.2913 19.8278 14.2966 20.8172 14.3585 20.8428C14.5193 20.902 14.7353 20.8979 14.8961 20.8253C15.099 20.7364 15.4877 20.2976 15.5456 20.0903C15.6444 19.7012 15.7024 19.7739 13.3901 17.3859C11.3756 15.3061 11.2847 15.2011 11.2847 15.053C11.2847 14.8457 11.4217 14.7151 11.6405 14.7151C11.7972 14.7111 11.8302 14.7407 13.8908 16.8662C16.0581 19.1022 16.0674 19.1103 16.3849 19.1103C16.6286 19.1103 17.1003 18.7293 17.2452 18.413C17.3441 18.1935 17.3441 18.0374 17.2413 17.826C17.1873 17.7116 16.2189 16.6939 14.3374 14.7663C11.6905 12.0659 11.4995 11.8842 11.3677 11.8842C11.236 11.8842 11.1148 11.9945 9.69182 13.4443C8.85254 14.3018 8.08706 15.0503 7.99615 15.1055C7.17664 15.617 6.09758 15.4986 5.42695 14.8228C5.07517 14.4634 4.98426 13.9693 5.19507 13.5507C5.24513 13.4578 6.16741 12.4684 7.31762 11.277L9.35453 9.16899L9.2096 9.04648C8.50208 8.43399 7.51788 7.97765 6.52841 7.804C6.09494 7.72323 5.13182 7.72726 4.68518 7.80803Z" fill="#C41C1B"/>
<path d="M13.2266 7.80391C12.1264 7.99776 11.1752 8.45948 10.3636 9.20255C10.1897 9.36275 9.08557 10.4868 7.90638 11.705L5.77197 13.9154L5.79305 14.0716C5.8339 14.33 6.19885 14.5831 6.64945 14.6719C6.91428 14.7231 7.28187 14.6679 7.53484 14.5373C7.6376 14.4862 8.30428 13.8441 9.25554 12.8762C10.6956 11.4143 10.8234 11.2958 11.0303 11.2272C11.299 11.1383 11.6139 11.1598 11.8458 11.2823C11.9407 11.3335 13.1857 12.58 14.9064 14.3421C17.3465 16.8446 17.8182 17.3427 17.8854 17.5123C17.9262 17.6267 17.9763 17.7156 17.9934 17.7156C18.0554 17.7156 18.5481 17.1192 18.7919 16.7396C19.2266 16.08 19.5073 15.3787 19.6641 14.5629C19.7721 14.0056 19.7629 12.9273 19.6469 12.3822C19.1252 9.94832 17.3426 8.19429 14.9855 7.80526C14.5375 7.72718 13.6522 7.72718 13.2266 7.80391Z" fill="#C41C1B"/>
<path d="M5.75233 17.1651C5.53757 17.2162 5.42163 17.3172 4.57314 18.2043C3.6759 19.1426 3.62188 19.2274 3.71279 19.5693C3.77076 19.7887 4.15153 20.2289 4.36233 20.3177C4.52307 20.3891 4.73915 20.3945 4.89989 20.3299C5.03691 20.2787 6.67065 18.6351 6.76156 18.4574C6.8696 18.246 6.84852 17.9593 6.70754 17.7305C6.4638 17.3307 6.07381 17.0978 5.75233 17.1651Z" fill="#C41C1B"/>
<path d="M7.31117 19.0256C7.11618 19.1306 5.54831 20.746 5.49561 20.8981C5.42051 21.0919 5.44159 21.3962 5.53645 21.5577C5.58257 21.6344 5.71037 21.7906 5.82236 21.8996C6.0661 22.1446 6.28613 22.216 6.56676 22.1446C6.7275 22.1029 6.84872 22.0006 7.49299 21.3544C7.89879 20.9438 8.29932 20.5212 8.38628 20.4121C8.57205 20.1792 8.62212 19.9477 8.54702 19.7148C8.4851 19.521 8.08325 19.0767 7.90143 19C7.72092 18.9192 7.48509 18.9287 7.31117 19.0256Z" fill="#C41C1B"/>
<path d="M9.15671 20.7794C9.03681 20.8212 8.76804 21.0675 8.14748 21.6961C7.6837 22.17 7.27922 22.6129 7.24628 22.6896C7.10135 23.0315 7.22915 23.399 7.60201 23.7288C7.87079 23.9657 8.11058 24.0169 8.37936 23.9065C8.56909 23.8257 10.137 22.2454 10.2529 22.0179C10.3478 21.8281 10.3517 21.5992 10.2648 21.4135C10.1659 21.1981 9.75224 20.8171 9.56119 20.7619C9.36356 20.7067 9.35434 20.7067 9.15671 20.7794Z" fill="#C41C1B"/>
<path d="M10.7868 22.6184C10.572 22.7328 9.06212 24.3051 8.98702 24.4908C8.85922 24.8072 8.92905 25.0697 9.23472 25.4035C9.33748 25.5179 9.48768 25.6404 9.56542 25.6781C9.7222 25.7549 9.98308 25.767 10.153 25.6997C10.298 25.6445 11.7868 24.1395 11.9488 23.8905C12.0766 23.6872 12.1056 23.4422 12.0279 23.2308C11.9699 23.0707 11.5773 22.6601 11.4192 22.5928C11.2334 22.512 10.9594 22.5201 10.7868 22.6184Z" fill="#C41C1B"/>
</svg>
